<?xml version="1.0" encoding="UTF-8"?>
<svg xmlns="http://www.w3.org/2000/svg" viewBox="0 0 3001 3001">

  <path
    fill="black"
    d="M 1706.230469 1372.160156 
       L 2621.570312 1799.5 
       L 2568.019531 1549.5 
       L 2130.5 1237.101562 
       L 2130.5 963.789062 
       L 1911.351562 963.789062 
       L 1911.351562 1080.609375 
       L 1708.421875 935.71875 
       L 1708.421875 599.5 
       C 1708.421875 599.5 1708.421875 299.5 1505.5 249.5 
       C 1302.578125 299.5 1302.578125 599.5 1302.578125 599.5 
       L 1302.578125 935.71875 
       L 1099.660156 1080.609375 
       L 1099.660156 963.789062 
       L 880.5 963.789062 
       L 880.5 1237.101562 
       L 442.980469 1549.5 
       L 389.429688 1799.5 
       L 1304.769531 1372.160156 
       L 1404.039062 2399.5 
       L 1099.660156 2649.5 
       L 1099.660156 2749.5 
       L 1505.5 2599.5 
       L 1911.351562 2749.5 
       L 1911.351562 2649.5 
       L 1606.960938 2399.5 
       L 1706.230469 1372.160156 
       Z" />

</svg>
